<svg xmlns="http://www.w3.org/2000/svg" width="72" height="72" fill="none"><g fill="#737d8c" clip-path="url(#a)"><path d="M36 67.5a31.5 31.5 0 1 1 0-63 31.5 31.5 0 0 1 0 63m0 4.5a36 36 0 1 0 0-72 36 36 0 0 0 0 72"/><path d="M36 58.5a22.5 22.5 0 1 1 0-45 22.5 22.5 0 0 1 0 45m0 4.5a27 27 0 1 0 0-54 27 27 0 0 0 0 54"/><path d="M36 49.5a13.5 13.5 0 1 1 0-27 13.5 13.5 0 0 1 0 27m0 4.5a18 18 0 1 0 0-36 18 18 0 0 0 0 36"/><path d="M42.75 36a6.75 6.75 0 1 1-13.5 0 6.75 6.75 0 0 1 13.5 0"/></g><defs><clipPath id="a"><path fill="#fff" d="M0 0h72v72H0z"/></clipPath></defs></svg>