<svg xmlns="http://www.w3.org/2000/svg" width="48" height="47" fill="none"><g fill="#161614" clip-path="url(#a)"><path d="M23.907 0C10.705 0 0 10.774 0 24.064c0 10.632 6.85 19.652 16.35 22.834 1.194.222 1.633-.522 1.633-1.158 0-.574-.023-2.47-.033-4.48-6.65 1.456-8.054-2.84-8.054-2.84C8.808 35.64 7.24 34.9 7.24 34.9c-2.169-1.494.164-1.463.164-1.463 2.4.17 3.665 2.48 3.665 2.48 2.132 3.678 5.592 2.615 6.957 2 .214-1.555.834-2.617 1.517-3.218-5.31-.608-10.892-2.672-10.892-11.892 0-2.627.934-4.774 2.464-6.46-.249-.605-1.067-3.053.231-6.367 0 0 2.008-.647 6.576 2.466 1.907-.533 3.952-.8 5.984-.81 2.032.01 4.079.277 5.99.81 4.563-3.113 6.567-2.466 6.567-2.466 1.302 3.314.483 5.762.235 6.368 1.532 1.685 2.46 3.832 2.46 6.459 0 9.242-5.593 11.278-10.916 11.873.857.747 1.621 2.211 1.621 4.456 0 3.22-.027 5.811-.027 6.604 0 .64.43 1.39 1.642 1.154 9.494-3.185 16.335-12.202 16.335-22.83C47.814 10.774 37.11 0 23.907 0"/><path d="M8.954 34.28c-.052.119-.24.155-.41.073-.173-.079-.27-.242-.214-.362.051-.123.238-.157.411-.075.174.079.273.243.213.363m1.176 1.055c-.114.107-.337.057-.488-.11-.157-.169-.186-.393-.07-.5.117-.107.334-.058.49.11.157.17.187.393.068.5m.807 1.352c-.147.102-.386.006-.534-.208-.147-.214-.147-.47.003-.573.148-.103.384-.01.534.202.146.217.146.474-.003.579m1.364 1.565c-.131.145-.41.106-.614-.092-.21-.194-.268-.47-.136-.615.133-.146.413-.105.619.092.208.194.27.471.131.615m1.763.528c-.057.189-.326.274-.597.194-.27-.082-.447-.303-.393-.493.057-.19.327-.28.6-.194.27.082.447.302.39.493m2.007.224c.007.199-.223.363-.507.367-.286.006-.517-.154-.52-.35 0-.2.224-.363.51-.368.284-.005.517.154.517.351m1.972-.076c.034.194-.164.393-.446.446-.277.05-.534-.069-.57-.26-.034-.2.167-.398.444-.45.283-.05.536.067.572.264"/></g><defs><clipPath id="a"><path fill="#fff" d="M0 0h48v47H0z"/></clipPath></defs></svg>