<svg xmlns="http://www.w3.org/2000/svg" width="48" height="48" fill="none"><g clip-path="url(#a)"><path fill="#fff" d="M3.611 5.94h39.762v38.128H3.611z"/><path fill="#0a66c2" d="M.048 3.439C.048 1.54 1.633 0 3.588 0h40.824c1.955 0 3.54 1.54 3.54 3.439v41.124c0 1.899-1.585 3.437-3.54 3.437H3.588c-1.955 0-3.54-1.538-3.54-3.437z"/><path fill="#fff" d="M14.606 40.17V18.56H7.437v21.61zm-3.582-24.56c2.499 0 4.055-1.66 4.055-3.733-.046-2.12-1.556-3.734-4.007-3.734-2.453 0-4.056 1.613-4.056 3.734 0 2.074 1.555 3.734 3.961 3.734zm7.549 24.56h7.168V28.102c0-.646.046-1.291.237-1.752.517-1.292 1.696-2.628 3.678-2.628 2.593 0 3.63 1.982 3.63 4.887v11.559h7.169v-12.39c0-6.637-3.536-9.725-8.252-9.725-3.867 0-5.564 2.165-6.508 3.64h.048V18.56h-7.17c.094 2.028 0 21.61 0 21.61"/></g><defs><clipPath id="a"><path fill="#fff" d="M0 0h48v48H0z"/></clipPath></defs></svg>